<svg width="23" height="26" viewBox="0 0 23 26" fill="none" xmlns="http://www.w3.org/2000/svg">
<path d="M11.1997 0C8.65358 0 6.21178 1.01143 4.41143 2.81177C2.61108 4.61212 1.59966 7.05392 1.59966 9.6V15.3376L0.468459 16.4688C0.244764 16.6926 0.0924337 16.9776 0.0307256 17.288C-0.0309825 17.5983 0.000702321 17.9199 0.121774 18.2122C0.242846 18.5046 0.44787 18.7544 0.710925 18.9302C0.973981 19.1061 1.28326 19.1999 1.59966 19.2H20.7997C21.1161 19.1999 21.4253 19.1061 21.6884 18.9302C21.9514 18.7544 22.1565 18.5046 22.2775 18.2122C22.3986 17.9199 22.4303 17.5983 22.3686 17.288C22.3069 16.9776 22.1546 16.6926 21.9309 16.4688L20.7997 15.3376V9.6C20.7997 7.05392 19.7882 4.61212 17.9879 2.81177C16.1875 1.01143 13.7457 0 11.1997 0ZM11.1997 25.6C9.92662 25.6 8.70572 25.0943 7.80555 24.1941C6.90537 23.2939 6.39966 22.073 6.39966 20.8H15.9997C15.9997 22.073 15.4939 23.2939 14.5938 24.1941C13.6936 25.0943 12.4727 25.6 11.1997 25.6Z" fill="#172B4D"/>
</svg>
