<svg width="26" height="27" viewBox="0 0 26 27" fill="none" xmlns="http://www.w3.org/2000/svg">
<path d="M7.6667 6.83333V1.5M18.3334 6.83333V1.5M6.33336 12.1667H19.6667M3.6667 25.5H22.3334C23.0406 25.5 23.7189 25.219 24.219 24.719C24.7191 24.2189 25 23.5406 25 22.8333V6.83333C25 6.12609 24.7191 5.44781 24.219 4.94772C23.7189 4.44762 23.0406 4.16667 22.3334 4.16667H3.6667C2.95945 4.16667 2.28118 4.44762 1.78108 4.94772C1.28098 5.44781 1.00003 6.12609 1.00003 6.83333V22.8333C1.00003 23.5406 1.28098 24.2189 1.78108 24.719C2.28118 25.219 2.95945 25.5 3.6667 25.5Z" stroke="black" stroke-width="2" stroke-linecap="round" stroke-linejoin="round"/>
</svg>
