<svg width="22" height="28" viewBox="0 0 22 28" fill="none" xmlns="http://www.w3.org/2000/svg">
<path d="M7.00002 4.66667H4.33335C3.62611 4.66667 2.94783 4.94762 2.44774 5.44772C1.94764 5.94781 1.66669 6.62609 1.66669 7.33333V23.3333C1.66669 24.0406 1.94764 24.7189 2.44774 25.219C2.94783 25.719 3.62611 26 4.33335 26H17.6667C18.3739 26 19.0522 25.719 19.5523 25.219C20.0524 24.7189 20.3334 24.0406 20.3334 23.3333V7.33333C20.3334 6.62609 20.0524 5.94781 19.5523 5.44772C19.0522 4.94762 18.3739 4.66667 17.6667 4.66667H15M7.00002 4.66667C7.00002 5.37391 7.28097 6.05219 7.78107 6.55229C8.28117 7.05238 8.95944 7.33333 9.66669 7.33333H12.3334C13.0406 7.33333 13.7189 7.05238 14.219 6.55229C14.7191 6.05219 15 5.37391 15 4.66667M7.00002 4.66667C7.00002 3.95942 7.28097 3.28115 7.78107 2.78105C8.28117 2.28095 8.95944 2 9.66669 2H12.3334C13.0406 2 13.7189 2.28095 14.219 2.78105C14.7191 3.28115 15 3.95942 15 4.66667" stroke="#172B4D" stroke-width="3" stroke-linecap="round" stroke-linejoin="round"/>
</svg>
