<svg width="26" height="27" viewBox="0 0 26 27" fill="none" xmlns="http://www.w3.org/2000/svg">
<path d="M14.3333 18.8333H13V13.5H11.6667M13 8.16667H13.0133M25 13.5C25 15.0759 24.6896 16.6363 24.0866 18.0922C23.4835 19.5481 22.5996 20.871 21.4853 21.9853C20.371 23.0996 19.0481 23.9835 17.5922 24.5866C16.1363 25.1896 14.5759 25.5 13 25.5C11.4241 25.5 9.86371 25.1896 8.4078 24.5866C6.95189 23.9835 5.62902 23.0996 4.51472 21.9853C3.40042 20.871 2.5165 19.5481 1.91345 18.0922C1.31039 16.6363 1 15.0759 1 13.5C1 10.3174 2.26428 7.26516 4.51472 5.01472C6.76516 2.76428 9.8174 1.5 13 1.5C16.1826 1.5 19.2348 2.76428 21.4853 5.01472C23.7357 7.26516 25 10.3174 25 13.5Z" stroke="black" stroke-width="2" stroke-linecap="round" stroke-linejoin="round"/>
</svg>
