<svg width="26" height="26" viewBox="0 0 26 26" fill="none" xmlns="http://www.w3.org/2000/svg">
<path d="M9.884 19.6667H16.1147M13 1V2.33333M21.4853 4.51467L20.5427 5.45733M25 13H23.6667M2.33333 13H1M5.45733 5.45733L4.51467 4.51467M8.28533 17.7147C7.35316 16.7822 6.7184 15.5944 6.4613 14.3012C6.20421 13.008 6.33634 11.6677 6.84097 10.4496C7.34561 9.23154 8.20009 8.19046 9.29638 7.45799C10.3927 6.72553 11.6815 6.33458 13 6.33458C14.3185 6.33458 15.6073 6.72553 16.7036 7.45799C17.7999 8.19046 18.6544 9.23154 19.159 10.4496C19.6637 11.6677 19.7958 13.008 19.5387 14.3012C19.2816 15.5944 18.6468 16.7822 17.7147 17.7147L16.984 18.444C16.5663 18.8618 16.2349 19.3578 16.0089 19.9036C15.7829 20.4495 15.6666 21.0345 15.6667 21.6253V22.3333C15.6667 23.0406 15.3857 23.7189 14.8856 24.219C14.3855 24.719 13.7072 25 13 25C12.2928 25 11.6145 24.719 11.1144 24.219C10.6143 23.7189 10.3333 23.0406 10.3333 22.3333V21.6253C10.3333 20.432 9.85867 19.2867 9.016 18.444L8.28533 17.7147Z" stroke="black" stroke-width="2" stroke-linecap="round" stroke-linejoin="round"/>
</svg>
