<svg width="24" height="20" viewBox="0 0 24 20" fill="none" xmlns="http://www.w3.org/2000/svg">
<path fill-rule="evenodd" clip-rule="evenodd" d="M0.799988 2.00002C0.799988 1.57568 0.968559 1.16871 1.26862 0.868654C1.56868 0.568596 1.97564 0.400024 2.39999 0.400024H21.6C22.0243 0.400024 22.4313 0.568596 22.7314 0.868654C23.0314 1.16871 23.2 1.57568 23.2 2.00002C23.2 2.42437 23.0314 2.83134 22.7314 3.13139C22.4313 3.43145 22.0243 3.60002 21.6 3.60002H2.39999C1.97564 3.60002 1.56868 3.43145 1.26862 3.13139C0.968559 2.83134 0.799988 2.42437 0.799988 2.00002ZM0.799988 10C0.799988 9.57568 0.968559 9.16871 1.26862 8.86865C1.56868 8.56859 1.97564 8.40002 2.39999 8.40002H21.6C22.0243 8.40002 22.4313 8.56859 22.7314 8.86865C23.0314 9.16871 23.2 9.57568 23.2 10C23.2 10.4244 23.0314 10.8313 22.7314 11.1314C22.4313 11.4315 22.0243 11.6 21.6 11.6H2.39999C1.97564 11.6 1.56868 11.4315 1.26862 11.1314C0.968559 10.8313 0.799988 10.4244 0.799988 10ZM0.799988 18C0.799988 17.5757 0.968559 17.1687 1.26862 16.8687C1.56868 16.5686 1.97564 16.4 2.39999 16.4H21.6C22.0243 16.4 22.4313 16.5686 22.7314 16.8687C23.0314 17.1687 23.2 17.5757 23.2 18C23.2 18.4244 23.0314 18.8313 22.7314 19.1314C22.4313 19.4315 22.0243 19.6 21.6 19.6H2.39999C1.97564 19.6 1.56868 19.4315 1.26862 19.1314C0.968559 18.8313 0.799988 18.4244 0.799988 18Z" fill="black"/>
</svg>
