<svg width="28" height="27" viewBox="0 0 28 27" fill="none" xmlns="http://www.w3.org/2000/svg">
<path d="M12.732 2.90266C13.132 1.67466 14.8693 1.67466 15.268 2.90266L17.2933 9.13466C17.3805 9.40198 17.5499 9.6349 17.7774 9.80013C18.0049 9.96536 18.2788 10.0545 18.56 10.0547H25.1133C26.4053 10.0547 26.9413 11.708 25.8973 12.468L20.596 16.3187C20.3683 16.4842 20.1988 16.7176 20.1119 16.9854C20.0249 17.2531 20.025 17.5416 20.112 17.8093L22.136 24.0413C22.536 25.2707 21.1293 26.292 20.0853 25.532L14.784 21.6813C14.5562 21.5157 14.2817 21.4265 14 21.4265C13.7183 21.4265 13.4439 21.5157 13.216 21.6813L7.91467 25.532C6.87067 26.292 5.464 25.2693 5.864 24.0413L7.88801 17.8093C7.97504 17.5416 7.97509 17.2531 7.88815 16.9854C7.80121 16.7176 7.63173 16.4842 7.40401 16.3187L2.10267 12.468C1.05734 11.708 1.59601 10.0547 2.88667 10.0547H9.43867C9.72007 10.0547 9.99428 9.96578 10.222 9.80052C10.4498 9.63527 10.6194 9.40219 10.7067 9.13466L12.732 2.90266Z" stroke="black" stroke-width="2" stroke-linecap="round" stroke-linejoin="round"/>
</svg>
